<svg id="visual" viewBox="0 0 900 600" width="900" height="600" xmlns="http://www.w3.org/2000/svg" xmlns:xlink="http://www.w3.org/1999/xlink" version="1.1"><g stroke-width="1" stroke-linejoin="bevel"><path d="M422 305L387 180L329 285Z" fill="#000000" stroke="#000000"></path><path d="M422 305L488 208L387 180Z" fill="#090909" stroke="#090909"></path><path d="M387 180L265 161L329 285Z" fill="#090909" stroke="#090909"></path><path d="M527 395L523 338L422 305Z" fill="#040404" stroke="#040404"></path><path d="M422 305L523 338L488 208Z" fill="#111111" stroke="#111111"></path><path d="M488 208L390 83L387 180Z" fill="#040404" stroke="#040404"></path><path d="M387 180L390 83L265 161Z" fill="#090909" stroke="#090909"></path><path d="M238 388L307 405L329 285Z" fill="#040404" stroke="#040404"></path><path d="M329 285L307 405L422 305Z" fill="#111111" stroke="#111111"></path><path d="M577 306L565 200L488 208Z" fill="#000000" stroke="#000000"></path><path d="M488 208L522 76L390 83Z" fill="#040404" stroke="#040404"></path><path d="M307 405L383 438L422 305Z" fill="#040404" stroke="#040404"></path><path d="M585 399L577 306L523 338Z" fill="#141414" stroke="#141414"></path><path d="M523 338L577 306L488 208Z" fill="#040404" stroke="#040404"></path><path d="M165 298L238 388L329 285Z" fill="#040404" stroke="#040404"></path><path d="M307 405L360 499L383 438Z" fill="#0f0f0f" stroke="#0f0f0f"></path><path d="M383 438L527 395L422 305Z" fill="#020202" stroke="#020202"></path><path d="M390 83L261 75L265 161Z" fill="#000000" stroke="#000000"></path><path d="M265 161L165 298L329 285Z" fill="#040404" stroke="#040404"></path><path d="M565 200L522 76L488 208Z" fill="#040404" stroke="#040404"></path><path d="M390 83L275 0L261 75Z" fill="#121212" stroke="#121212"></path><path d="M161 128L178 177L265 161Z" fill="#000000" stroke="#000000"></path><path d="M178 177L165 298L265 161Z" fill="#000000" stroke="#000000"></path><path d="M178 177L139 228L165 298Z" fill="#070707" stroke="#070707"></path><path d="M486 0L391 0L390 83Z" fill="#000000" stroke="#000000"></path><path d="M581 491L585 399L527 395Z" fill="#0b0b0b" stroke="#0b0b0b"></path><path d="M527 395L585 399L523 338Z" fill="#070707" stroke="#070707"></path><path d="M129 410L266 470L238 388Z" fill="#070707" stroke="#070707"></path><path d="M238 388L266 470L307 405Z" fill="#020202" stroke="#020202"></path><path d="M383 438L473 508L527 395Z" fill="#000000" stroke="#000000"></path><path d="M266 470L360 499L307 405Z" fill="#111111" stroke="#111111"></path><path d="M261 75L161 128L265 161Z" fill="#070707" stroke="#070707"></path><path d="M178 177L161 128L139 228Z" fill="#070707" stroke="#070707"></path><path d="M174 0L161 128L261 75Z" fill="#020202" stroke="#020202"></path><path d="M565 200L571 67L522 76Z" fill="#0b0b0b" stroke="#0b0b0b"></path><path d="M522 76L486 0L390 83Z" fill="#0f0f0f" stroke="#0f0f0f"></path><path d="M668 234L571 67L565 200Z" fill="#0b0b0b" stroke="#0b0b0b"></path><path d="M668 234L565 200L577 306Z" fill="#040404" stroke="#040404"></path><path d="M571 67L486 0L522 76Z" fill="#000000" stroke="#000000"></path><path d="M391 0L275 0L390 83Z" fill="#121212" stroke="#121212"></path><path d="M360 499L473 508L383 438Z" fill="#0b0b0b" stroke="#0b0b0b"></path><path d="M691 335L668 234L577 306Z" fill="#090909" stroke="#090909"></path><path d="M73 266L129 410L165 298Z" fill="#0f0f0f" stroke="#0f0f0f"></path><path d="M165 298L129 410L238 388Z" fill="#0b0b0b" stroke="#0b0b0b"></path><path d="M129 410L233 518L266 470Z" fill="#020202" stroke="#020202"></path><path d="M266 470L233 518L360 499Z" fill="#0b0b0b" stroke="#0b0b0b"></path><path d="M360 499L392 600L473 508Z" fill="#000000" stroke="#000000"></path><path d="M473 508L581 491L527 395Z" fill="#121212" stroke="#121212"></path><path d="M585 399L691 335L577 306Z" fill="#0d0d0d" stroke="#0d0d0d"></path><path d="M139 228L73 266L165 298Z" fill="#0f0f0f" stroke="#0f0f0f"></path><path d="M0 187L73 266L139 228Z" fill="#121212" stroke="#121212"></path><path d="M722 362L691 335L585 399Z" fill="#000000" stroke="#000000"></path><path d="M275 0L174 0L261 75Z" fill="#020202" stroke="#020202"></path><path d="M161 128L64 97L139 228Z" fill="#040404" stroke="#040404"></path><path d="M663 0L629 0L571 67Z" fill="#0b0b0b" stroke="#0b0b0b"></path><path d="M571 67L629 0L486 0Z" fill="#020202" stroke="#020202"></path><path d="M663 0L571 67L733 84Z" fill="#111111" stroke="#111111"></path><path d="M317 600L392 600L360 499Z" fill="#121212" stroke="#121212"></path><path d="M473 508L561 600L581 491Z" fill="#0b0b0b" stroke="#0b0b0b"></path><path d="M174 0L134 0L161 128Z" fill="#111111" stroke="#111111"></path><path d="M0 422L104 463L129 410Z" fill="#121212" stroke="#121212"></path><path d="M129 410L104 463L233 518Z" fill="#040404" stroke="#040404"></path><path d="M233 518L317 600L360 499Z" fill="#070707" stroke="#070707"></path><path d="M735 479L722 362L585 399Z" fill="#0b0b0b" stroke="#0b0b0b"></path><path d="M691 335L814 238L668 234Z" fill="#111111" stroke="#111111"></path><path d="M134 0L64 97L161 128Z" fill="#0f0f0f" stroke="#0f0f0f"></path><path d="M167 600L317 600L233 518Z" fill="#000000" stroke="#000000"></path><path d="M392 600L500 600L473 508Z" fill="#121212" stroke="#121212"></path><path d="M581 491L735 479L585 399Z" fill="#141414" stroke="#141414"></path><path d="M733 84L571 67L668 234Z" fill="#121212" stroke="#121212"></path><path d="M764 124L733 84L668 234Z" fill="#000000" stroke="#000000"></path><path d="M73 266L0 295L129 410Z" fill="#0f0f0f" stroke="#0f0f0f"></path><path d="M0 187L0 295L73 266Z" fill="#111111" stroke="#111111"></path><path d="M64 97L0 187L139 228Z" fill="#0b0b0b" stroke="#0b0b0b"></path><path d="M500 600L561 600L473 508Z" fill="#0d0d0d" stroke="#0d0d0d"></path><path d="M814 238L764 124L668 234Z" fill="#090909" stroke="#090909"></path><path d="M0 0L0 96L64 97Z" fill="#111111" stroke="#111111"></path><path d="M64 97L0 96L0 187Z" fill="#0f0f0f" stroke="#0f0f0f"></path><path d="M104 463L167 600L233 518Z" fill="#040404" stroke="#040404"></path><path d="M138 600L167 600L104 463Z" fill="#141414" stroke="#141414"></path><path d="M719 600L735 479L581 491Z" fill="#000000" stroke="#000000"></path><path d="M819 308L814 238L691 335Z" fill="#040404" stroke="#040404"></path><path d="M0 295L0 422L129 410Z" fill="#121212" stroke="#121212"></path><path d="M819 308L691 335L722 362Z" fill="#0f0f0f" stroke="#0f0f0f"></path><path d="M0 507L138 600L104 463Z" fill="#121212" stroke="#121212"></path><path d="M793 431L819 308L722 362Z" fill="#121212" stroke="#121212"></path><path d="M735 479L793 431L722 362Z" fill="#090909" stroke="#090909"></path><path d="M134 0L0 0L64 97Z" fill="#040404" stroke="#040404"></path><path d="M0 422L0 507L104 463Z" fill="#070707" stroke="#070707"></path><path d="M719 600L786 516L735 479Z" fill="#0b0b0b" stroke="#0b0b0b"></path><path d="M735 479L786 516L793 431Z" fill="#0f0f0f" stroke="#0f0f0f"></path><path d="M900 296L814 238L819 308Z" fill="#141414" stroke="#141414"></path><path d="M561 600L719 600L581 491Z" fill="#0b0b0b" stroke="#0b0b0b"></path><path d="M900 86L828 0L764 124Z" fill="#090909" stroke="#090909"></path><path d="M764 124L828 0L733 84Z" fill="#090909" stroke="#090909"></path><path d="M733 84L828 0L663 0Z" fill="#090909" stroke="#090909"></path><path d="M900 86L764 124L814 238Z" fill="#0d0d0d" stroke="#0d0d0d"></path><path d="M900 296L819 308L900 436Z" fill="#141414" stroke="#141414"></path><path d="M900 296L900 236L814 238Z" fill="#111111" stroke="#111111"></path><path d="M900 436L819 308L793 431Z" fill="#111111" stroke="#111111"></path><path d="M0 507L0 600L138 600Z" fill="#0f0f0f" stroke="#0f0f0f"></path><path d="M900 236L900 86L814 238Z" fill="#070707" stroke="#070707"></path><path d="M900 520L793 431L786 516Z" fill="#090909" stroke="#090909"></path><path d="M900 520L900 436L793 431Z" fill="#090909" stroke="#090909"></path><path d="M719 600L829 600L786 516Z" fill="#020202" stroke="#020202"></path><path d="M900 86L900 0L828 0Z" fill="#0f0f0f" stroke="#0f0f0f"></path><path d="M829 600L900 520L786 516Z" fill="#090909" stroke="#090909"></path><path d="M829 600L900 600L900 520Z" fill="#0b0b0b" stroke="#0b0b0b"></path></g></svg>